<svg width="601" height="138" viewBox="0 0 601 138" fill="none" xmlns="http://www.w3.org/2000/svg">
<path d="M52.9658 0.803574L60.3938 45.8994L105.49 53.3274L60.3938 60.7554L52.9658 105.851L45.5378 60.7554L0.441895 53.3274L45.5378 45.8994L52.9658 0.803574Z" fill="black"/>
<path d="M134.791 72.6031C134.791 77.5626 138.349 80.0424 145.465 80.0424C152.652 80.0424 156.246 77.8142 156.246 73.3578C156.246 70.9858 155.024 69.0452 152.58 67.5357C150.137 66.0263 147.154 64.7685 143.632 63.7622C140.182 62.7559 136.696 61.6059 133.174 60.3121C129.723 58.9464 126.776 56.862 124.333 54.0588C121.889 51.1837 120.667 47.6257 120.667 43.385C120.667 25.3438 132.275 16.3232 155.491 16.3232C163.973 16.3232 170.37 17.9405 174.683 21.1749C179.067 24.3375 181.259 28.758 181.259 34.4363C181.259 36.5207 180.972 38.5333 180.397 40.474C179.894 42.3428 179.355 43.6725 178.78 44.4632L177.917 45.7569H158.834C160.415 44.1038 161.206 42.0193 161.206 39.5036C161.206 34.8316 158.151 32.4956 152.041 32.4956C144.35 32.4956 140.505 34.9394 140.505 39.8271C140.505 42.2709 141.727 44.2116 144.171 45.6491C146.615 47.0867 149.562 48.2367 153.012 49.0992C156.534 49.8899 160.056 50.8962 163.578 52.1181C167.1 53.34 170.082 55.3885 172.526 58.2636C174.97 61.0668 176.192 64.7325 176.192 69.2608C176.192 78.3892 173.461 85.1816 167.998 89.638C162.535 94.0225 154.126 96.2148 142.769 96.2148C131.413 96.2148 123.65 94.2022 119.481 90.1771C116.39 87.1582 114.845 82.9893 114.845 77.6704C114.845 75.6579 115.06 73.4656 115.492 71.0937L115.815 69.3686H135.222L135.006 70.6624C134.863 71.3812 134.791 72.0281 134.791 72.6031Z" fill="black"/>
<path d="M233.597 16.3232C250.92 16.3232 259.581 23.4031 259.581 37.5629C259.581 39.9349 259.329 42.4865 258.826 45.2179L255.053 66.781C253.328 76.772 249.59 84.1753 243.84 88.9911C238.09 93.8069 230.003 96.2148 219.581 96.2148C209.159 96.2148 201.899 93.8069 197.802 88.9911C194.999 85.6847 193.598 81.1205 193.598 75.2985C193.598 72.7109 193.885 69.8717 194.46 66.781L198.234 45.2179C201.612 25.9548 213.4 16.3232 233.597 16.3232ZM222.492 79.5033C226.086 79.5033 228.961 78.5689 231.117 76.7001C233.274 74.8313 234.783 71.3812 235.646 66.3498L239.312 45.6491C239.527 44.2116 239.635 42.9178 239.635 41.7678C239.635 35.9457 236.688 33.0347 230.794 33.0347C223.391 33.1784 218.97 37.3832 217.533 45.6491L213.867 66.3498C213.579 68.1467 213.436 70.0155 213.436 71.9562C213.436 76.9876 216.455 79.5033 222.492 79.5033Z" fill="black"/>
<path d="M319.964 94.7053H270.8L284.493 17.0779H303.9L293.226 77.8861H322.983L319.964 94.7053Z" fill="black"/>
<path d="M374.534 94.7053L375.181 77.7782H357.175L351.892 94.7053H331.299L359.008 17.0779H394.587L395.019 94.7053H374.534ZM370.113 35.9457L361.596 63.3309H375.72L376.906 35.9457H370.113Z" fill="black"/>
<path d="M457.727 17.0779C465.921 17.0779 471.743 18.8749 475.193 22.4687C477.781 25.2001 479.075 28.6502 479.075 32.819C479.075 34.2566 478.931 35.766 478.643 37.3473L477.134 45.7569C476.271 50.429 474.762 54.2025 472.606 57.0776C470.521 59.9527 468.185 62.0012 465.598 63.2231L475.409 94.7053H453.63L444.573 65.7029H437.889L433.468 94.7053H412.768L426.46 17.0779H457.727ZM450.935 33.8972H442.848L440.045 52.6572H447.592C451.402 52.6572 454.133 51.7587 455.786 49.9618C457.439 48.093 458.266 45.6491 458.266 42.6303C458.266 36.8082 455.822 33.8972 450.935 33.8972Z" fill="black"/>
<path d="M524.169 17.0779L510.584 94.7053H491.069L504.762 17.0779H524.169Z" fill="black"/>
<path d="M553.954 72.6031C553.954 77.5626 557.512 80.0424 564.628 80.0424C571.816 80.0424 575.41 77.8142 575.41 73.3578C575.41 70.9858 574.188 69.0452 571.744 67.5357C569.3 66.0263 566.317 64.7685 562.795 63.7622C559.345 62.7559 555.859 61.6059 552.337 60.3121C548.887 58.9464 545.94 56.862 543.496 54.0588C541.052 51.1837 539.83 47.6257 539.83 43.385C539.83 25.3438 551.439 16.3232 574.655 16.3232C583.136 16.3232 589.534 17.9405 593.846 21.1749C598.231 24.3375 600.423 28.758 600.423 34.4363C600.423 36.5207 600.135 38.5333 599.56 40.474C599.057 42.3428 598.518 43.6725 597.943 44.4632L597.081 45.7569H577.997C579.579 44.1038 580.369 42.0193 580.369 39.5036C580.369 34.8316 577.314 32.4956 571.205 32.4956C563.514 32.4956 559.669 34.9394 559.669 39.8271C559.669 42.2709 560.89 44.2116 563.334 45.6491C565.778 47.0867 568.725 48.2367 572.175 49.0992C575.697 49.8899 579.219 50.8962 582.741 52.1181C586.263 53.34 589.246 55.3885 591.69 58.2636C594.134 61.0668 595.356 64.7325 595.356 69.2608C595.356 78.3892 592.624 85.1816 587.162 89.638C581.699 94.0225 573.289 96.2148 561.933 96.2148C550.576 96.2148 542.813 94.2022 538.644 90.1771C535.554 87.1582 534.008 82.9893 534.008 77.6704C534.008 75.6579 534.224 73.4656 534.655 71.0937L534.979 69.3686H554.386L554.17 70.6624C554.026 71.3812 553.954 72.0281 553.954 72.6031Z" fill="black"/>
<path d="M71.4605 85.4737C67.7269 81.1979 64.4023 77.5632 64.4023 77.5632L65.4514 66.3251L73.585 64.8787C73.585 64.8787 78.5672 74.8435 83.6054 79.7075C87.2804 83.2554 90.2401 85.394 93.8485 87.8422C104.669 95.1835 116.695 100.669 128.921 105.211C165.772 118.9 205.538 124.511 244.542 127.532C354.53 136.053 466.069 123.217 574.626 106.234C575.944 106.028 582.873 106.903 582.227 107.02C578.865 107.626 562.913 109.018 559.548 109.61C548.933 111.476 538.309 113.288 527.67 115.011C495.524 120.218 463.273 124.789 430.912 128.437C348.44 137.733 263.06 143.06 180.703 129.592C153.776 125.189 126.56 118.61 101.909 106.621C93.7916 102.674 85.9014 98.1036 78.8191 92.4808C76.7516 90.8393 74.0705 88.4628 71.4605 85.4737Z" fill="black"/>
</svg>
