<svg width="610" height="120" viewBox="0 0 610 120" fill="none" xmlns="http://www.w3.org/2000/svg">
<path d="M138.791 76.6031C138.791 81.5626 142.349 84.0424 149.464 84.0424C156.652 84.0424 160.246 81.8142 160.246 77.3578C160.246 74.9858 159.024 73.0452 156.58 71.5357C154.136 70.0263 151.154 68.7685 147.632 67.7622C144.181 66.7559 140.695 65.6059 137.173 64.3121C133.723 62.9464 130.776 60.862 128.333 58.0588C125.889 55.1837 124.667 51.6257 124.667 47.385C124.667 29.3438 136.275 20.3232 159.491 20.3232C167.973 20.3232 174.37 21.9405 178.683 25.1749C183.067 28.3375 185.259 32.758 185.259 38.4363C185.259 40.5207 184.972 42.5333 184.397 44.474C183.894 46.3428 183.355 47.6725 182.78 48.4631L181.917 49.7569H162.834C164.415 48.1038 165.206 46.0193 165.206 43.5036C165.206 38.8316 162.151 36.4956 156.041 36.4956C148.35 36.4956 144.505 38.9394 144.505 43.8271C144.505 46.2709 145.727 48.2116 148.171 49.6491C150.614 51.0867 153.561 52.2367 157.012 53.0992C160.534 53.8899 164.056 54.8962 167.577 56.1181C171.099 57.34 174.082 59.3885 176.526 62.2636C178.97 65.0668 180.192 68.7325 180.192 73.2608C180.192 82.3892 177.461 89.1816 171.998 93.638C166.535 98.0225 158.126 100.215 146.769 100.215C135.412 100.215 127.65 98.2022 123.481 94.1771C120.39 91.1582 118.845 86.9893 118.845 81.6704C118.845 79.6579 119.06 77.4656 119.492 75.0937L119.815 73.3686H139.222L139.006 74.6624C138.863 75.3812 138.791 76.0281 138.791 76.6031Z" fill="black"/>
<path d="M237.597 20.3232C254.92 20.3232 263.581 27.4031 263.581 41.5629C263.581 43.9349 263.329 46.4865 262.826 49.2179L259.052 70.781C257.327 80.772 253.59 88.1753 247.84 92.9911C242.089 97.8069 234.003 100.215 223.581 100.215C213.159 100.215 205.899 97.8069 201.802 92.9911C198.999 89.6847 197.597 85.1205 197.597 79.2985C197.597 76.7109 197.885 73.8717 198.46 70.781L202.234 49.2179C205.612 29.9548 217.4 20.3232 237.597 20.3232ZM226.492 83.5033C230.086 83.5033 232.961 82.5689 235.117 80.7001C237.274 78.8313 238.783 75.3812 239.646 70.3498L243.311 49.6491C243.527 48.2116 243.635 46.9178 243.635 45.7677C243.635 39.9457 240.688 37.0347 234.794 37.0347C227.391 37.1784 222.97 41.3832 221.533 49.6491L217.867 70.3498C217.579 72.1467 217.436 74.0155 217.436 75.9562C217.436 80.9876 220.454 83.5033 226.492 83.5033Z" fill="black"/>
<path d="M323.964 98.7053H274.8L288.493 21.0779H307.9L297.226 81.886H326.983L323.964 98.7053Z" fill="black"/>
<path d="M378.533 98.7053L379.18 81.7782H361.175L355.892 98.7053H335.299L363.008 21.0779H398.587L399.018 98.7053H378.533ZM374.113 39.9457L365.596 67.3309H379.719L380.905 39.9457H374.113Z" fill="black"/>
<path d="M461.727 21.0779C469.921 21.0779 475.743 22.8749 479.193 26.4687C481.781 29.2001 483.074 32.6502 483.074 36.819C483.074 38.2566 482.931 39.766 482.643 41.3473L481.134 49.7569C480.271 54.429 478.762 58.2025 476.605 61.0776C474.521 63.9527 472.185 66.0012 469.597 67.2231L479.409 98.7053H457.63L448.573 69.7029H441.889L437.468 98.7053H416.768L430.46 21.0779H461.727ZM454.934 37.8972H446.848L444.045 56.6572H451.592C455.402 56.6572 458.133 55.7587 459.786 53.9618C461.439 52.0929 462.266 49.6491 462.266 46.6303C462.266 40.8082 459.822 37.8972 454.934 37.8972Z" fill="black"/>
<path d="M528.168 21.0779L514.584 98.7053H495.069L508.762 21.0779H528.168Z" fill="black"/>
<path d="M557.954 76.6031C557.954 81.5626 561.512 84.0424 568.628 84.0424C575.816 84.0424 579.41 81.8142 579.41 77.3578C579.41 74.9858 578.188 73.0452 575.744 71.5357C573.3 70.0263 570.317 68.7685 566.795 67.7622C563.345 66.7559 559.859 65.6059 556.337 64.3121C552.887 62.9464 549.94 60.862 547.496 58.0588C545.052 55.1837 543.83 51.6257 543.83 47.385C543.83 29.3438 555.439 20.3232 578.655 20.3232C587.136 20.3232 593.533 21.9405 597.846 25.1749C602.231 28.3375 604.423 32.758 604.423 38.4363C604.423 40.5207 604.135 42.5333 603.56 44.474C603.057 46.3428 602.518 47.6725 601.943 48.4631L601.081 49.7569H581.997C583.578 48.1038 584.369 46.0193 584.369 43.5036C584.369 38.8316 581.314 36.4956 575.205 36.4956C567.514 36.4956 563.668 38.9394 563.668 43.8271C563.668 46.2709 564.89 48.2116 567.334 49.6491C569.778 51.0867 572.725 52.2367 576.175 53.0992C579.697 53.8899 583.219 54.8962 586.741 56.1181C590.263 57.34 593.246 59.3885 595.69 62.2636C598.134 65.0668 599.355 68.7325 599.355 73.2608C599.355 82.3892 596.624 89.1816 591.161 93.638C585.699 98.0225 577.289 100.215 565.933 100.215C554.576 100.215 546.813 98.2022 542.644 94.1771C539.554 91.1582 538.008 86.9893 538.008 81.6704C538.008 79.6579 538.224 77.4656 538.655 75.0937L538.979 73.3686H558.385L558.17 74.6624C558.026 75.3812 557.954 76.0281 557.954 76.6031Z" fill="black"/>
<path d="M60.0535 1.47772L68.3678 51.9546L118.845 60.269L68.3678 68.5833L60.0535 119.06L51.7391 68.5833L1.26221 60.269L51.7391 51.9546L60.0535 1.47772Z" fill="black"/>
<path fill-rule="evenodd" clip-rule="evenodd" d="M75.6172 74.4655C75.6172 74.4661 75.6172 74.4666 75.6172 74.4672L74.1172 74.4672C75.6172 74.4672 75.6172 74.4661 75.6172 74.4655C75.6172 74.4661 75.6172 74.4666 75.6172 74.4672L75.6173 74.4828C75.6175 74.498 75.6178 74.5231 75.6185 74.5577C75.6199 74.6269 75.6228 74.7343 75.6287 74.8773C75.6406 75.1634 75.6647 75.5916 75.7137 76.1417C75.8118 77.2423 76.0091 78.8274 76.4056 80.735C77.1996 84.555 78.7859 89.6363 81.9481 94.7073C88.2134 104.755 100.831 115.035 126.581 115.035H609.157V118.035H126.581C99.868 118.035 86.2532 107.281 79.4024 96.2947C76.0065 90.8488 74.3139 85.4132 73.4683 81.3455C73.0451 79.3092 72.8325 77.6078 72.7256 76.4079C72.6721 75.8076 72.645 75.3321 72.6313 75.0019C72.6244 74.8368 72.6209 74.708 72.6191 74.618C72.6182 74.573 72.6177 74.5378 72.6175 74.5125L72.6172 74.4822L72.6172 74.4728L72.6172 74.4695C72.6172 74.4683 72.6172 74.4672 74.1172 74.4672" fill="black"/>
<path d="M156.58 71.5357L156.843 71.1103L156.843 71.1103L156.58 71.5357ZM147.632 67.7622L147.492 68.2422L147.494 68.2429L147.632 67.7622ZM137.173 64.3121L136.989 64.7771L137.001 64.7814L137.173 64.3121ZM128.333 58.0588L127.952 58.3826L127.956 58.3873L128.333 58.0588ZM178.683 25.1749L178.382 25.575L178.39 25.5804L178.683 25.1749ZM184.397 44.474L183.917 44.3319L183.914 44.344L184.397 44.474ZM182.78 48.4631L182.375 48.1691C182.371 48.1746 182.367 48.1801 182.363 48.1858L182.78 48.4631ZM181.917 49.7569V50.2569C182.084 50.2569 182.24 50.1734 182.333 50.0343L181.917 49.7569ZM162.834 49.7569L162.472 49.4113C162.334 49.556 162.295 49.7693 162.374 49.9534C162.452 50.1375 162.633 50.2569 162.834 50.2569V49.7569ZM148.171 49.6491L147.917 50.0801L147.917 50.0801L148.171 49.6491ZM157.012 53.0992L156.89 53.5844L156.902 53.5871L157.012 53.0992ZM167.577 56.1181L167.414 56.5905L167.414 56.5905L167.577 56.1181ZM176.526 62.2636L176.145 62.5874L176.149 62.5921L176.526 62.2636ZM171.998 93.638L172.311 94.0279L172.314 94.0254L171.998 93.638ZM123.481 94.1771L123.131 94.5347L123.134 94.5368L123.481 94.1771ZM119.492 75.0937L119 75.0015L119 75.0042L119.492 75.0937ZM119.815 73.3686V72.8686C119.574 72.8686 119.368 73.04 119.324 73.2765L119.815 73.3686ZM139.222 73.3686L139.715 73.4508C139.739 73.3058 139.698 73.1576 139.603 73.0454C139.508 72.9333 139.369 72.8686 139.222 72.8686V73.3686ZM139.006 74.6624L139.497 74.7605C139.498 74.7552 139.499 74.7499 139.499 74.7446L139.006 74.6624ZM262.826 49.2179L262.334 49.1273L262.334 49.1317L262.826 49.2179ZM259.052 70.781L258.56 70.6948L258.56 70.6959L259.052 70.781ZM247.84 92.9911L248.161 93.3744L248.161 93.3744L247.84 92.9911ZM201.802 92.9911L201.421 93.3144L201.421 93.3151L201.802 92.9911ZM198.46 70.781L198.952 70.8725L198.953 70.8672L198.46 70.781ZM202.234 49.2179L201.741 49.1315L201.741 49.1317L202.234 49.2179ZM235.117 80.7001L234.79 80.3222L234.79 80.3222L235.117 80.7001ZM239.646 70.3498L239.153 70.2626L239.153 70.2653L239.646 70.3498ZM243.311 49.6491L243.804 49.7363L243.806 49.7233L243.311 49.6491ZM234.794 37.0347V36.5346L234.784 36.5348L234.794 37.0347ZM221.533 49.6491L222.025 49.7363L222.025 49.7348L221.533 49.6491ZM217.867 70.3498L217.374 70.2626L217.373 70.2708L217.867 70.3498ZM323.964 98.7053V99.2053C324.206 99.2053 324.414 99.0319 324.456 98.7937L323.964 98.7053ZM274.8 98.7053L274.308 98.6185C274.282 98.764 274.322 98.9135 274.417 99.0267C274.512 99.1399 274.653 99.2053 274.8 99.2053V98.7053ZM288.493 21.0779V20.5779C288.25 20.5779 288.043 20.7521 288.001 20.9911L288.493 21.0779ZM307.9 21.0779L308.392 21.1644C308.418 21.0189 308.378 20.8695 308.283 20.7564C308.188 20.6433 308.048 20.5779 307.9 20.5779V21.0779ZM297.226 81.886L296.734 81.7996C296.708 81.9451 296.748 82.0945 296.843 82.2076C296.938 82.3207 297.078 82.386 297.226 82.386V81.886ZM326.983 81.886L327.475 81.9744C327.502 81.8286 327.462 81.6788 327.367 81.5652C327.272 81.4517 327.131 81.386 326.983 81.386V81.886ZM378.533 98.7053L378.034 98.6862C378.029 98.822 378.079 98.9541 378.173 99.0521C378.267 99.15 378.398 99.2053 378.533 99.2053V98.7053ZM379.18 81.7782L379.68 81.7973C379.685 81.6615 379.635 81.5294 379.541 81.4315C379.446 81.3336 379.316 81.2782 379.18 81.2782V81.7782ZM361.175 81.7782V81.2782C360.956 81.2782 360.763 81.4205 360.698 81.6293L361.175 81.7782ZM355.892 98.7053V99.2053C356.111 99.2053 356.304 99.0631 356.369 98.8543L355.892 98.7053ZM335.299 98.7053L334.828 98.5372C334.774 98.6904 334.797 98.8605 334.891 98.9934C334.984 99.1263 335.137 99.2053 335.299 99.2053V98.7053ZM363.008 21.0779V20.5779C362.797 20.5779 362.608 20.7108 362.537 20.9098L363.008 21.0779ZM398.587 21.0779L399.087 21.0751C399.086 20.8001 398.862 20.5779 398.587 20.5779V21.0779ZM399.018 98.7053V99.2053C399.152 99.2053 399.279 99.1523 399.373 99.0579C399.467 98.9635 399.519 98.8356 399.518 98.7025L399.018 98.7053ZM374.113 39.9457V39.4457C373.894 39.4457 373.701 39.5881 373.636 39.7972L374.113 39.9457ZM365.596 67.3309L365.118 67.1824C365.071 67.3342 365.099 67.4994 365.193 67.6274C365.287 67.7554 365.437 67.8309 365.596 67.8309V67.3309ZM379.719 67.3309V67.8309C379.987 67.8309 380.207 67.62 380.219 67.3526L379.719 67.3309ZM380.905 39.9457L381.405 39.9673C381.411 39.8311 381.361 39.6984 381.267 39.5999C381.172 39.5014 381.042 39.4457 380.905 39.4457V39.9457ZM479.193 26.4687L479.556 26.1248L479.554 26.1225L479.193 26.4687ZM482.643 41.3473L482.151 41.2579L482.151 41.259L482.643 41.3473ZM481.134 49.7569L481.625 49.8477L481.626 49.8453L481.134 49.7569ZM476.605 61.0776L476.205 60.7776L476.201 60.7841L476.605 61.0776ZM469.597 67.2231L469.384 66.771C469.158 66.8775 469.046 67.1338 469.12 67.3719L469.597 67.2231ZM479.409 98.7053V99.2053C479.568 99.2053 479.717 99.1297 479.811 99.0016C479.906 98.8736 479.933 98.7083 479.886 98.5566L479.409 98.7053ZM457.63 98.7053L457.153 98.8544C457.218 99.0631 457.411 99.2053 457.63 99.2053V98.7053ZM448.573 69.7029L449.051 69.5538C448.985 69.345 448.792 69.2029 448.573 69.2029V69.7029ZM441.889 69.7029V69.2029C441.642 69.2029 441.432 69.3833 441.394 69.6275L441.889 69.7029ZM437.468 98.7053V99.2053C437.715 99.2053 437.925 99.0249 437.963 98.7807L437.468 98.7053ZM416.768 98.7053L416.275 98.6185C416.25 98.764 416.29 98.9135 416.385 99.0267C416.48 99.1399 416.62 99.2053 416.768 99.2053V98.7053ZM430.46 21.0779V20.5779C430.218 20.5779 430.01 20.7521 429.968 20.9911L430.46 21.0779ZM446.848 37.8972V37.3972C446.601 37.3972 446.39 37.5784 446.354 37.8233L446.848 37.8972ZM444.045 56.6572L443.551 56.5833C443.529 56.7272 443.571 56.8733 443.666 56.9835C443.761 57.0938 443.9 57.1572 444.045 57.1572V56.6572ZM459.786 53.9618L460.154 54.3003L460.161 54.293L459.786 53.9618ZM528.168 21.0779L528.661 21.1641C528.686 21.0186 528.646 20.8694 528.551 20.7563C528.456 20.6432 528.316 20.5779 528.168 20.5779V21.0779ZM514.584 98.7053V99.2053C514.826 99.2053 515.034 99.0308 515.076 98.7915L514.584 98.7053ZM495.069 98.7053L494.577 98.6185C494.551 98.764 494.591 98.9135 494.686 99.0267C494.781 99.1399 494.921 99.2053 495.069 99.2053V98.7053ZM508.762 21.0779V20.5779C508.519 20.5779 508.311 20.7521 508.269 20.9911L508.762 21.0779ZM575.744 71.5357L576.007 71.1103L576.007 71.1103L575.744 71.5357ZM566.795 67.7622L566.655 68.2422L566.658 68.2429L566.795 67.7622ZM556.337 64.3121L556.153 64.7771L556.165 64.7814L556.337 64.3121ZM547.496 58.0588L547.115 58.3826L547.119 58.3873L547.496 58.0588ZM597.846 25.1749L597.546 25.575L597.554 25.5804L597.846 25.1749ZM603.56 44.474L603.081 44.3319L603.077 44.344L603.56 44.474ZM601.943 48.4631L601.539 48.1691C601.535 48.1746 601.531 48.1801 601.527 48.1858L601.943 48.4631ZM601.081 49.7569V50.2569C601.248 50.2569 601.404 50.1734 601.497 50.0343L601.081 49.7569ZM581.997 49.7569L581.636 49.4113C581.497 49.556 581.459 49.7693 581.537 49.9534C581.616 50.1375 581.797 50.2569 581.997 50.2569V49.7569ZM567.334 49.6491L567.081 50.0801L567.081 50.0801L567.334 49.6491ZM576.175 53.0992L576.054 53.5844L576.066 53.5871L576.175 53.0992ZM586.741 56.1181L586.577 56.5905L586.577 56.5905L586.741 56.1181ZM595.69 62.2636L595.309 62.5874L595.313 62.5921L595.69 62.2636ZM591.161 93.638L591.474 94.0279L591.478 94.0254L591.161 93.638ZM542.644 94.1771L542.295 94.5347L542.297 94.5368L542.644 94.1771ZM538.655 75.0937L538.164 75.0015L538.163 75.0042L538.655 75.0937ZM538.979 73.3686V72.8686C538.738 72.8686 538.532 73.04 538.487 73.2765L538.979 73.3686ZM558.385 73.3686L558.879 73.4508C558.903 73.3059 558.862 73.1576 558.767 73.0454C558.672 72.9333 558.532 72.8686 558.385 72.8686V73.3686ZM558.17 74.6624L558.66 74.7605C558.661 74.7552 558.662 74.7499 558.663 74.7446L558.17 74.6624ZM60.0535 1.47772L60.5468 1.39646C60.507 1.15494 60.2982 0.977722 60.0535 0.977722C59.8087 0.977722 59.5999 1.15494 59.5601 1.39646L60.0535 1.47772ZM68.3678 51.9546L67.8745 52.0359C67.9093 52.2474 68.0751 52.4132 68.2865 52.448L68.3678 51.9546ZM118.845 60.269L118.926 60.7623C119.168 60.7226 119.345 60.5138 119.345 60.269C119.345 60.0242 119.168 59.8154 118.926 59.7756L118.845 60.269ZM68.3678 68.5833L68.2865 68.09C68.0751 68.1248 67.9093 68.2906 67.8745 68.5021L68.3678 68.5833ZM60.0535 119.06L59.5601 119.142C59.5999 119.383 59.8087 119.56 60.0535 119.56C60.2982 119.56 60.507 119.383 60.5468 119.142L60.0535 119.06ZM51.7391 68.5833L52.2325 68.5021C52.1976 68.2906 52.0319 68.1248 51.8204 68.09L51.7391 68.5833ZM1.26221 60.269L1.18094 59.7756C0.93942 59.8154 0.762207 60.0242 0.762207 60.269C0.762207 60.5138 0.93942 60.7226 1.18094 60.7623L1.26221 60.269ZM51.7391 51.9546L51.8204 52.448C52.0319 52.4132 52.1976 52.2474 52.2325 52.0359L51.7391 51.9546ZM75.6172 74.4655L76.1172 74.465L76.1166 73.965L75.6166 73.9655L75.6172 74.4655ZM74.1172 74.4672L74.1172 74.9672L74.1172 74.9672L74.1172 74.4672ZM75.6173 74.4828L75.1173 74.4867L75.1173 74.4878L75.6173 74.4828ZM75.6185 74.5577L75.1186 74.5677L75.1186 74.5677L75.6185 74.5577ZM75.6287 74.8773L75.1291 74.8981L75.1291 74.8981L75.6287 74.8773ZM75.7137 76.1417L76.2118 76.0973L76.2118 76.0973L75.7137 76.1417ZM76.4056 80.735L75.916 80.8367L75.916 80.8367L76.4056 80.735ZM81.9481 94.7073L82.3723 94.4427L82.3723 94.4427L81.9481 94.7073ZM609.157 115.035H609.657V114.535H609.157V115.035ZM609.157 118.035V118.535H609.657V118.035H609.157ZM79.4024 96.2947L78.9782 96.5592L78.9782 96.5592L79.4024 96.2947ZM73.4683 81.3455L72.9788 81.4473L72.9788 81.4473L73.4683 81.3455ZM72.7256 76.4079L72.2276 76.4522L72.2276 76.4522L72.7256 76.4079ZM72.6313 75.0019L72.1317 75.0227L72.1317 75.0227L72.6313 75.0019ZM72.6191 74.618L72.1192 74.6281L72.1192 74.6281L72.6191 74.618ZM72.6175 74.5125L72.1175 74.5164L72.1175 74.5175L72.6175 74.5125ZM72.6172 74.4822L72.1172 74.4838L72.1172 74.4861L72.6172 74.4822ZM72.6172 74.4728L72.1172 74.4739L72.1172 74.4744L72.6172 74.4728ZM72.6172 74.4695L72.1172 74.47L72.1172 74.4707L72.6172 74.4695ZM138.291 76.6031C138.291 79.2192 139.239 81.2448 141.173 82.5927C143.074 83.9178 145.864 84.5424 149.464 84.5424V83.5424C145.949 83.5424 143.402 82.9271 141.745 81.7723C140.121 80.6405 139.291 78.9465 139.291 76.6031H138.291ZM149.464 84.5424C153.094 84.5424 155.9 83.9827 157.814 82.7962C159.767 81.5851 160.746 79.7477 160.746 77.3578H159.746C159.746 79.4242 158.928 80.9291 157.287 81.9463C155.607 82.9879 153.023 83.5424 149.464 83.5424V84.5424ZM160.746 77.3578C160.746 74.7739 159.398 72.6885 156.843 71.1103L156.318 71.9611C158.65 73.4018 159.746 75.1978 159.746 77.3578H160.746ZM156.843 71.1103C154.351 69.5712 151.324 68.297 147.769 67.2814L147.494 68.2429C150.984 69.2399 153.922 70.4814 156.318 71.9611L156.843 71.1103ZM147.772 67.2822C144.333 66.2792 140.858 65.1328 137.346 63.8427L137.001 64.7814C140.533 66.079 144.03 67.2326 147.492 68.2422L147.772 67.2822ZM137.357 63.8472C133.982 62.511 131.101 60.4733 128.709 57.7302L127.956 58.3873C130.452 61.2506 133.465 63.3819 136.989 64.777L137.357 63.8472ZM128.713 57.7349C126.356 54.9615 125.167 51.5228 125.167 47.385H124.167C124.167 51.7287 125.421 55.4058 127.952 58.3826L128.713 57.7349ZM125.167 47.385C125.167 38.4799 128.025 31.8775 133.68 27.4835C139.358 23.0708 147.934 20.8232 159.491 20.8232V19.8232C147.832 19.8232 138.996 22.0859 133.066 26.6938C127.112 31.3204 124.167 38.2489 124.167 47.385H125.167ZM159.491 20.8232C167.922 20.8232 174.193 22.4331 178.383 25.5749L178.983 24.7749C174.546 21.4478 168.023 19.8232 159.491 19.8232V20.8232ZM178.39 25.5804C182.637 28.6436 184.759 32.9091 184.759 38.4363H185.759C185.759 32.6068 183.497 28.0314 178.975 24.7694L178.39 25.5804ZM184.759 38.4363C184.759 40.4741 184.478 42.4387 183.917 44.3319L184.876 44.616C185.465 42.6278 185.759 40.5674 185.759 38.4363H184.759ZM183.914 44.344C183.414 46.2 182.894 47.4557 182.375 48.1691L183.184 48.7572C183.815 47.8893 184.373 46.4855 184.88 44.6039L183.914 44.344ZM182.363 48.1858L181.501 49.4796L182.333 50.0343L183.196 48.7405L182.363 48.1858ZM181.917 49.2569H162.834V50.2569H181.917V49.2569ZM163.195 50.1026C164.874 48.3467 165.706 46.1341 165.706 43.5036H164.706C164.706 45.9046 163.955 47.8609 162.472 49.4113L163.195 50.1026ZM165.706 43.5036C165.706 41.0492 164.896 39.1336 163.218 37.8504C161.566 36.5866 159.146 35.9956 156.041 35.9956V36.9956C159.046 36.9956 161.209 37.5726 162.611 38.6448C163.987 39.6976 164.706 41.286 164.706 43.5036H165.706ZM156.041 35.9956C152.159 35.9956 149.162 36.6095 147.121 37.9065C145.042 39.2279 144.005 41.2271 144.005 43.8271H145.005C145.005 41.5394 145.891 39.8729 147.657 38.7505C149.462 37.6036 152.233 36.9956 156.041 36.9956V35.9956ZM144.005 43.8271C144.005 46.4794 145.35 48.5698 147.917 50.0801L148.424 49.2182C146.104 47.8533 145.005 46.0624 145.005 43.8271H144.005ZM147.917 50.0801C150.411 51.5472 153.405 52.713 156.89 53.5843L157.133 52.6142C153.718 51.7604 150.818 50.6262 148.424 49.2182L147.917 50.0801ZM156.902 53.5871C160.405 54.3735 163.909 55.3745 167.414 56.5905L167.741 55.6457C164.202 54.4178 160.662 53.4063 157.121 52.6114L156.902 53.5871ZM167.414 56.5905C170.85 57.7827 173.758 59.7794 176.145 62.5874L176.907 61.9397C174.406 58.9975 171.349 56.8972 167.741 55.6457L167.414 56.5905ZM176.149 62.5921C178.497 65.2855 179.692 68.8259 179.692 73.2608H180.692C180.692 68.6392 179.443 64.848 176.903 61.935L176.149 62.5921ZM179.692 73.2608C179.692 82.2868 176.996 88.9157 171.682 93.2505L172.314 94.0254C177.926 89.4475 180.692 82.4916 180.692 73.2608H179.692ZM171.685 93.248C166.351 97.5289 158.077 99.7147 146.769 99.7147V100.715C158.174 100.715 166.719 98.5161 172.311 94.0279L171.685 93.248ZM146.769 99.7147C135.434 99.7147 127.847 97.6981 123.828 93.8174L123.134 94.5368C127.452 98.7063 135.391 100.715 146.769 100.715V99.7147ZM123.83 93.8194C120.857 90.9155 119.345 86.8878 119.345 81.6704H118.345C118.345 87.0908 119.923 91.4009 123.131 94.5347L123.83 93.8194ZM119.345 81.6704C119.345 79.693 119.557 77.5311 119.984 75.1831L119 75.0042C118.564 77.4001 118.345 79.6227 118.345 81.6704H119.345ZM119.983 75.1858L120.307 73.4608L119.324 73.2765L119 75.0015L119.983 75.1858ZM119.815 73.8686H139.222V72.8686H119.815V73.8686ZM138.729 73.2864L138.513 74.5802L139.499 74.7446L139.715 73.4508L138.729 73.2864ZM138.516 74.5643C138.367 75.3071 138.291 75.9876 138.291 76.6031H139.291C139.291 76.0685 139.358 75.4553 139.497 74.7605L138.516 74.5643ZM237.597 20.8232C246.203 20.8232 252.565 22.5839 256.768 26.0203C260.953 29.4408 263.081 34.5897 263.081 41.5629H264.081C264.081 34.3764 261.878 28.9053 257.401 25.246C252.944 21.6025 246.314 19.8232 237.597 19.8232V20.8232ZM263.081 41.5629C263.081 43.8999 262.833 46.4209 262.334 49.1273L263.318 49.3084C263.825 46.5521 264.081 43.9699 264.081 41.5629H263.081ZM262.334 49.1317L258.56 70.6948L259.545 70.8672L263.319 49.304L262.334 49.1317ZM258.56 70.6959C256.848 80.6114 253.15 87.8911 247.519 92.6078L248.161 93.3744C254.029 88.4596 257.807 80.9325 259.545 70.8661L258.56 70.6959ZM247.519 92.6078C241.888 97.3234 233.931 99.7147 223.581 99.7147V100.715C234.075 100.715 242.291 98.2903 248.161 93.3744L247.519 92.6078ZM223.581 99.7147C213.213 99.7147 206.138 97.316 202.183 92.6671L201.421 93.3151C205.66 98.2977 213.105 100.715 223.581 100.715V99.7147ZM202.184 92.6677C199.48 89.4787 198.097 85.043 198.097 79.2985H197.097C197.097 85.1981 198.518 89.8908 201.421 93.3144L202.184 92.6677ZM198.097 79.2985C198.097 76.7473 198.381 73.9392 198.952 70.8725L197.968 70.6896C197.389 73.8043 197.097 76.6745 197.097 79.2985H198.097ZM198.953 70.8672L202.726 49.304L201.741 49.1317L197.967 70.6948L198.953 70.8672ZM202.726 49.3042C204.4 39.7564 208.147 32.6544 213.924 27.9341C219.704 23.2121 227.576 20.8232 237.597 20.8232V19.8232C227.421 19.8232 219.3 22.2501 213.292 27.1597C207.281 32.0709 203.445 39.4162 201.741 49.1315L202.726 49.3042ZM226.492 84.0033C230.174 84.0033 233.176 83.0443 235.445 81.0779L234.79 80.3222C232.746 82.0935 229.998 83.0033 226.492 83.0033V84.0033ZM235.445 81.0779C237.735 79.0933 239.27 75.4995 240.138 70.4342L239.153 70.2653C238.296 75.2629 236.813 78.5693 234.79 80.3222L235.445 81.0779ZM240.138 70.4369L243.804 49.7363L242.819 49.5619L239.153 70.2626L240.138 70.4369ZM243.806 49.7233C244.024 48.2673 244.135 46.9481 244.135 45.7677H243.135C243.135 46.8875 243.03 48.1559 242.817 49.575L243.806 49.7233ZM244.135 45.7677C244.135 42.7781 243.378 40.4443 241.776 38.8622C240.175 37.2812 237.816 36.5347 234.794 36.5347V37.5347C237.665 37.5347 239.727 38.2436 241.073 39.5737C242.419 40.9026 243.135 42.9354 243.135 45.7677H244.135ZM234.784 36.5348C230.986 36.6085 227.901 37.7277 225.581 39.9338C223.269 42.1334 221.77 45.3637 221.04 49.5635L222.025 49.7348C222.732 45.6686 224.163 42.6636 226.271 40.6584C228.372 38.6597 231.199 37.6046 234.804 37.5346L234.784 36.5348ZM221.04 49.5619L217.374 70.2626L218.359 70.4369L222.025 49.7363L221.04 49.5619ZM217.373 70.2708C217.081 72.0955 216.936 73.9908 216.936 75.9562H217.936C217.936 74.0402 218.077 72.1979 218.361 70.4288L217.373 70.2708ZM216.936 75.9562C216.936 78.5753 217.726 80.6223 219.38 82.0006C221.016 83.3644 223.416 84.0033 226.492 84.0033V83.0033C223.53 83.0033 221.402 82.3844 220.02 81.2324C218.655 80.095 217.936 78.3684 217.936 75.9562H216.936ZM323.964 98.2053H274.8V99.2053H323.964V98.2053ZM275.293 98.7922L288.985 21.1648L288.001 20.9911L274.308 98.6185L275.293 98.7922ZM288.493 21.5779H307.9V20.5779H288.493V21.5779ZM307.407 20.9915L296.734 81.7996L297.719 81.9725L308.392 21.1644L307.407 20.9915ZM297.226 82.386H326.983V81.386H297.226V82.386ZM326.491 81.7977L323.472 98.617L324.456 98.7937L327.475 81.9744L326.491 81.7977ZM379.033 98.7244L379.68 81.7973L378.681 81.7591L378.034 98.6862L379.033 98.7244ZM379.18 81.2782H361.175V82.2782H379.18V81.2782ZM360.698 81.6293L355.415 98.5564L356.369 98.8543L361.652 81.9272L360.698 81.6293ZM355.892 98.2053H335.299V99.2053H355.892V98.2053ZM335.77 98.8734L363.479 21.246L362.537 20.9098L334.828 98.5372L335.77 98.8734ZM363.008 21.5779H398.587V20.5779H363.008V21.5779ZM398.087 21.0807L398.519 98.7081L399.518 98.7025L399.087 21.0751L398.087 21.0807ZM399.018 98.2053H378.533V99.2053H399.018V98.2053ZM373.636 39.7972L365.118 67.1824L366.073 67.4794L374.591 40.0942L373.636 39.7972ZM365.596 67.8309H379.719V66.8309H365.596V67.8309ZM380.219 67.3526L381.405 39.9673L380.406 39.9241L379.22 67.3093L380.219 67.3526ZM380.905 39.4457H374.113V40.4457H380.905V39.4457ZM461.727 21.5779C469.869 21.5779 475.522 23.3668 478.832 26.815L479.554 26.1225C475.964 22.3829 469.973 20.5779 461.727 20.5779V21.5779ZM478.83 26.8126C481.32 29.4407 482.574 32.7631 482.574 36.819H483.574C483.574 32.5373 482.241 28.9594 479.556 26.1248L478.83 26.8126ZM482.574 36.819C482.574 38.2233 482.434 39.7027 482.151 41.2579L483.135 41.4367C483.427 39.8293 483.574 38.2899 483.574 36.819H482.574ZM482.151 41.259L480.642 49.6686L481.626 49.8453L483.135 41.4356L482.151 41.259ZM480.642 49.6662C479.789 54.2857 478.303 57.9808 476.205 60.7776L477.005 61.3776C479.221 58.4242 480.753 54.5722 481.625 49.8477L480.642 49.6662ZM476.201 60.7841C474.154 63.6073 471.879 65.5927 469.384 66.771L469.811 67.6752C472.491 66.4097 474.888 64.2981 477.01 61.3711L476.201 60.7841ZM469.12 67.3719L478.931 98.8541L479.886 98.5566L470.075 67.0743L469.12 67.3719ZM479.409 98.2053H457.63V99.2053H479.409V98.2053ZM458.107 98.5563L449.051 69.5538L448.096 69.8519L457.153 98.8544L458.107 98.5563ZM448.573 69.2029H441.889V70.2029H448.573V69.2029ZM441.394 69.6275L436.974 98.63L437.963 98.7807L442.383 69.7782L441.394 69.6275ZM437.468 98.2053H416.768V99.2053H437.468V98.2053ZM417.26 98.7922L430.953 21.1648L429.968 20.9911L416.275 98.6185L417.26 98.7922ZM430.46 21.5779H461.727V20.5779H430.46V21.5779ZM454.934 37.3972H446.848V38.3972H454.934V37.3972ZM446.354 37.8233L443.551 56.5833L444.54 56.731L447.343 37.9711L446.354 37.8233ZM444.045 57.1572H451.592V56.1572H444.045V57.1572ZM451.592 57.1572C455.464 57.1572 458.364 56.2457 460.154 54.3003L459.418 53.6232C457.902 55.2716 455.339 56.1572 451.592 56.1572V57.1572ZM460.161 54.293C461.911 52.3145 462.766 49.7443 462.766 46.6303H461.766C461.766 49.5539 460.968 51.8714 459.412 53.6305L460.161 54.293ZM462.766 46.6303C462.766 43.6614 462.145 41.3416 460.816 39.759C459.473 38.1596 457.481 37.3972 454.934 37.3972V38.3972C457.276 38.3972 458.949 39.0903 460.05 40.402C461.165 41.7303 461.766 43.7771 461.766 46.6303H462.766ZM527.676 20.9917L514.091 98.6191L515.076 98.7915L528.661 21.1641L527.676 20.9917ZM514.584 98.2053H495.069V99.2053H514.584V98.2053ZM495.561 98.7922L509.254 21.1648L508.269 20.9911L494.577 98.6185L495.561 98.7922ZM508.762 21.5779H528.168V20.5779H508.762V21.5779ZM557.454 76.6031C557.454 79.2192 558.403 81.2448 560.337 82.5927C562.238 83.9178 565.027 84.5424 568.628 84.5424V83.5424C565.113 83.5424 562.565 82.9271 560.909 81.7723C559.285 80.6405 558.454 78.9465 558.454 76.6031H557.454ZM568.628 84.5424C572.257 84.5424 575.064 83.9827 576.978 82.7962C578.931 81.5851 579.91 79.7477 579.91 77.3578H578.91C578.91 79.4242 578.091 80.9292 576.451 81.9463C574.771 82.9879 572.186 83.5424 568.628 83.5424V84.5424ZM579.91 77.3578C579.91 74.7739 578.562 72.6885 576.007 71.1103L575.481 71.9611C577.814 73.4018 578.91 75.1978 578.91 77.3578H579.91ZM576.007 71.1103C573.515 69.5712 570.487 68.297 566.932 67.2814L566.658 68.2429C570.147 69.2399 573.085 70.4814 575.481 71.9611L576.007 71.1103ZM566.935 67.2822C563.496 66.2792 560.021 65.1328 556.509 63.8427L556.165 64.7814C559.697 66.079 563.194 67.2326 566.655 68.2422L566.935 67.2822ZM556.521 63.8472C553.145 62.511 550.264 60.4733 547.873 57.7302L547.119 58.3873C549.615 61.2506 552.628 63.3819 556.153 64.777L556.521 63.8472ZM547.877 57.7349C545.52 54.9615 544.33 51.5228 544.33 47.385H543.33C543.33 51.7287 544.585 55.4058 547.115 58.3826L547.877 57.7349ZM544.33 47.385C544.33 38.4799 547.189 31.8775 552.843 27.4835C558.522 23.0708 567.098 20.8232 578.655 20.8232V19.8232C566.996 19.8232 558.159 22.0859 552.23 26.6938C546.276 31.3204 543.33 38.2489 543.33 47.385H544.33ZM578.655 20.8232C587.086 20.8232 593.357 22.4331 597.546 25.5749L598.146 24.7749C593.71 21.4478 587.187 19.8232 578.655 19.8232V20.8232ZM597.554 25.5804C601.8 28.6436 603.923 32.9091 603.923 38.4363H604.923C604.923 32.6068 602.661 28.0314 598.139 24.7694L597.554 25.5804ZM603.923 38.4363C603.923 40.4741 603.642 42.4387 603.081 44.3319L604.04 44.616C604.629 42.6278 604.923 40.5674 604.923 38.4363H603.923ZM603.077 44.344C602.578 46.2 602.058 47.4557 601.539 48.1691L602.347 48.7572C602.979 47.8893 603.537 46.4855 604.043 44.6039L603.077 44.344ZM601.527 48.1858L600.665 49.4796L601.497 50.0343L602.359 48.7405L601.527 48.1858ZM601.081 49.2569H581.997V50.2569H601.081V49.2569ZM582.358 50.1026C584.038 48.3467 584.869 46.1341 584.869 43.5036H583.869C583.869 45.9046 583.119 47.8609 581.636 49.4113L582.358 50.1026ZM584.869 43.5036C584.869 41.0492 584.06 39.1336 582.382 37.8504C580.729 36.5866 578.309 35.9956 575.205 35.9956V36.9956C578.21 36.9956 580.372 37.5726 581.774 38.6448C583.151 39.6976 583.869 41.286 583.869 43.5036H584.869ZM575.205 35.9956C571.322 35.9956 568.325 36.6095 566.284 37.9065C564.205 39.2279 563.168 41.2271 563.168 43.8271H564.168C564.168 41.5394 565.055 39.8729 566.821 38.7505C568.625 37.6036 571.396 36.9956 575.205 36.9956V35.9956ZM563.168 43.8271C563.168 46.4794 564.513 48.5698 567.081 50.0801L567.588 49.2182C565.267 47.8533 564.168 46.0624 564.168 43.8271H563.168ZM567.081 50.0801C569.575 51.5472 572.569 52.713 576.054 53.5843L576.296 52.6142C572.881 51.7604 569.981 50.6262 567.588 49.2182L567.081 50.0801ZM576.066 53.5871C579.569 54.3735 583.072 55.3745 586.577 56.5905L586.905 55.6457C583.366 54.4178 579.826 53.4063 576.285 52.6114L576.066 53.5871ZM586.577 56.5905C590.014 57.7827 592.922 59.7794 595.309 62.5874L596.071 61.9397C593.57 58.9975 590.512 56.8972 586.905 55.6457L586.577 56.5905ZM595.313 62.5921C597.661 65.2855 598.855 68.8259 598.855 73.2608H599.855C599.855 68.6392 598.606 64.848 596.067 61.935L595.313 62.5921ZM598.855 73.2608C598.855 82.2868 596.159 88.9157 590.845 93.2505L591.478 94.0254C597.089 89.4475 599.855 82.4916 599.855 73.2608H598.855ZM590.849 93.248C585.515 97.5289 577.241 99.7147 565.933 99.7147V100.715C577.337 100.715 585.883 98.5161 591.474 94.0279L590.849 93.248ZM565.933 99.7147C554.597 99.7147 547.011 97.6981 542.992 93.8174L542.297 94.5368C546.615 98.7063 554.555 100.715 565.933 100.715V99.7147ZM542.994 93.8194C540.021 90.9155 538.508 86.8879 538.508 81.6704H537.508C537.508 87.0908 539.087 91.4009 542.295 94.5347L542.994 93.8194ZM538.508 81.6704C538.508 79.6931 538.72 77.5311 539.147 75.1831L538.163 75.0042C537.728 77.4001 537.508 79.6227 537.508 81.6704H538.508ZM539.147 75.1858L539.47 73.4607L538.487 73.2765L538.164 75.0015L539.147 75.1858ZM538.979 73.8686H558.385V72.8686H538.979V73.8686ZM557.892 73.2864L557.677 74.5802L558.663 74.7446L558.879 73.4508L557.892 73.2864ZM557.68 74.5643C557.531 75.3071 557.454 75.9876 557.454 76.6031H558.454C558.454 76.0685 558.521 75.4552 558.66 74.7605L557.68 74.5643ZM59.5601 1.55898L67.8745 52.0359L68.8612 51.8734L60.5468 1.39646L59.5601 1.55898ZM68.2865 52.448L118.763 60.7623L118.926 59.7756L68.4491 51.4613L68.2865 52.448ZM118.763 59.7756L68.2865 68.09L68.4491 69.0767L118.926 60.7623L118.763 59.7756ZM67.8745 68.5021L59.5601 118.979L60.5468 119.142L68.8612 68.6646L67.8745 68.5021ZM60.5468 118.979L52.2325 68.5021L51.2458 68.6646L59.5601 119.142L60.5468 118.979ZM51.8204 68.09L1.34347 59.7756L1.18094 60.7623L51.6579 69.0767L51.8204 68.09ZM1.34347 60.7623L51.8204 52.448L51.6579 51.4613L1.18094 59.7756L1.34347 60.7623ZM52.2325 52.0359L60.5468 1.55899L59.5601 1.39646L51.2458 51.8734L52.2325 52.0359ZM76.1172 74.4672C76.1172 74.467 76.1172 74.467 76.1172 74.4665C76.1172 74.4661 76.1172 74.4656 76.1172 74.465L75.1172 74.4661C75.1172 74.466 75.1172 74.466 75.1172 74.4662C75.1172 74.4663 75.1172 74.4668 75.1172 74.4672H76.1172ZM74.1172 74.9672L75.6172 74.9672L75.6172 73.9672L74.1172 73.9672L74.1172 74.9672ZM75.1172 74.4659C75.1172 74.4659 75.1172 74.4635 75.1172 74.4611C75.1172 74.4587 75.1174 74.4516 75.1175 74.4468C75.118 74.4345 75.1192 74.4148 75.1228 74.3907C75.1306 74.339 75.1488 74.2742 75.1886 74.208C75.2666 74.0782 75.3777 74.0241 75.4217 74.0054C75.4692 73.9852 75.5088 73.9773 75.5226 73.9746C75.5405 73.9712 75.5548 73.9695 75.562 73.9687C75.5765 73.9671 75.5878 73.9665 75.5907 73.9663C75.5951 73.9661 75.5985 73.966 75.5997 73.966C75.6028 73.9659 75.6021 73.966 75.5899 73.9661C75.5681 73.9662 75.5226 73.9664 75.4288 73.9666C75.2418 73.9669 74.8672 73.9672 74.1172 73.9672L74.1172 74.9672C74.8672 74.9672 75.2426 74.9669 75.4306 74.9666C75.5242 74.9664 75.5725 74.9662 75.5976 74.966C75.6088 74.9659 75.6198 74.9658 75.6289 74.9656C75.6315 74.9655 75.6359 74.9653 75.6412 74.9651C75.645 74.9649 75.6567 74.9643 75.6716 74.9626C75.679 74.9618 75.6935 74.9601 75.7115 74.9566C75.7254 74.9539 75.7651 74.946 75.8126 74.9258C75.8567 74.9071 75.9678 74.8529 76.0458 74.7231C76.0855 74.6569 76.1037 74.5921 76.1116 74.5404C76.1152 74.5163 76.1164 74.4966 76.1168 74.4843C76.117 74.4795 76.1171 74.4723 76.1172 74.4699C76.1172 74.4675 76.1172 74.4651 76.1172 74.4651L75.1172 74.4659ZM76.1173 74.4789L76.1172 74.4633L75.1172 74.4711L75.1173 74.4867L76.1173 74.4789ZM76.1184 74.5476C76.1177 74.5147 76.1174 74.4913 76.1173 74.4779L75.1173 74.4878C75.1175 74.5047 75.1179 74.5314 75.1186 74.5677L76.1184 74.5476ZM76.1283 74.8565C76.1225 74.7172 76.1197 74.6134 76.1184 74.5476L75.1186 74.5677C75.12 74.6404 75.123 74.7514 75.1291 74.8981L76.1283 74.8565ZM76.2118 76.0973C76.1635 75.5556 76.1399 75.1352 76.1283 74.8565L75.1291 74.8981C75.1413 75.1915 75.166 75.6276 75.2157 76.186L76.2118 76.0973ZM76.8951 80.6332C76.5031 78.7471 76.3083 77.1814 76.2118 76.0973L75.2157 76.186C75.3152 77.3032 75.5151 78.9077 75.916 80.8367L76.8951 80.6332ZM82.3723 94.4427C79.2492 89.4342 77.6805 84.4119 76.8951 80.6332L75.916 80.8367C76.7186 84.698 78.3227 89.8384 81.5238 94.9718L82.3723 94.4427ZM126.581 114.535C100.991 114.535 88.5402 104.334 82.3723 94.4427L81.5238 94.9718C87.8867 105.176 100.67 115.535 126.581 115.535V114.535ZM609.157 114.535H126.581V115.535H609.157V114.535ZM609.657 118.035V115.035H608.657V118.035H609.657ZM126.581 118.535H609.157V117.535H126.581V118.535ZM78.9782 96.5592C85.9265 107.702 99.7076 118.535 126.581 118.535V117.535C100.028 117.535 86.5799 106.86 79.8267 96.0301L78.9782 96.5592ZM72.9788 81.4473C73.8329 85.5562 75.5433 91.0509 78.9782 96.5592L79.8267 96.0301C76.4698 90.6467 74.7948 85.2701 73.9579 81.2437L72.9788 81.4473ZM72.2276 76.4522C72.3359 77.6687 72.5511 79.3895 72.9788 81.4473L73.9579 81.2437C73.5391 79.2289 73.329 77.5469 73.2236 76.3635L72.2276 76.4522ZM72.1317 75.0227C72.1458 75.3602 72.1733 75.8436 72.2276 76.4522L73.2236 76.3635C73.1709 75.7716 73.1443 75.304 73.1309 74.9812L72.1317 75.0227ZM72.1192 74.6281C72.1211 74.7215 72.1247 74.8539 72.1317 75.0227L73.1309 74.9812C73.1242 74.8197 73.1207 74.6945 73.119 74.608L72.1192 74.6281ZM72.1175 74.5175C72.1178 74.5443 72.1182 74.5813 72.1192 74.6281L73.119 74.608C73.1181 74.5648 73.1177 74.5312 73.1174 74.5076L72.1175 74.5175ZM72.1172 74.4861L72.1175 74.5164L73.1174 74.5086L73.1172 74.4783L72.1172 74.4861ZM72.1172 74.4744L72.1172 74.4838L73.1172 74.4806L73.1172 74.4712L72.1172 74.4744ZM72.1172 74.4707L72.1172 74.4739L73.1172 74.4716L73.1172 74.4683L72.1172 74.4707ZM74.1172 73.9672C73.3673 73.9672 72.9917 73.9674 72.8036 73.9679C72.7101 73.9681 72.6609 73.9683 72.6348 73.9686C72.6244 73.9688 72.609 73.969 72.595 73.9697C72.5907 73.9699 72.5828 73.9703 72.5732 73.9712C72.5665 73.9718 72.5442 73.9739 72.5163 73.9796C72.5123 73.9805 72.4007 73.9986 72.2964 74.0859C72.226 74.1448 72.1676 74.2268 72.1378 74.3272C72.1248 74.3712 72.1203 74.4086 72.1185 74.4329C72.1176 74.445 72.1174 74.4548 72.1173 74.4607C72.1172 74.463 72.1172 74.4665 72.1172 74.4677C72.1172 74.4689 72.1172 74.47 72.1172 74.47L73.1172 74.469C73.1172 74.4583 73.1205 74.5308 73.0965 74.6116C73.0668 74.712 73.0084 74.794 72.938 74.8529C72.8339 74.94 72.7225 74.9581 72.7188 74.9589C72.6913 74.9646 72.6695 74.9666 72.6636 74.9671C72.6548 74.9679 72.6481 74.9683 72.6453 74.9684C72.637 74.9688 72.6334 74.9687 72.6465 74.9686C72.6672 74.9683 72.7117 74.9681 72.8058 74.9679C72.9927 74.9674 73.3671 74.9672 74.1172 74.9672L74.1172 73.9672ZM74.1177 74.9672L75.6177 74.9655L75.6166 73.9655L74.1166 73.9672L74.1177 74.9672Z" fill="black"/>
</svg>
